<?xml version="1.0" encoding="UTF-8"?>
<svg id="Layer_1" data-name="Layer 1" xmlns="http://www.w3.org/2000/svg" xmlns:xlink="http://www.w3.org/1999/xlink" viewBox="0 0 256 256">
  <defs>
    <style>
      .cls-1 {
        fill: url(#linear-gradient-2);
      }

      .cls-2 {
        fill: #101e35;
      }

      .cls-3 {
        fill: url(#linear-gradient);
      }
    </style>
    <linearGradient id="linear-gradient" x1="127.4" y1="45.72" x2="127.4" y2="206.85" gradientUnits="userSpaceOnUse">
      <stop offset="0" stop-color="#9ec2ff"/>
      <stop offset="1" stop-color="#4877c2"/>
    </linearGradient>
    <linearGradient id="linear-gradient-2" x1="9.68" y1="100.77" x2="246.61" y2="100.77" gradientUnits="userSpaceOnUse">
      <stop offset="0" stop-color="#ff9500"/>
      <stop offset=".5" stop-color="#90c2a4"/>
      <stop offset="1" stop-color="#9ec2ff"/>
    </linearGradient>
  </defs>
  <g>
    <polygon class="cls-3" points="107.08 45.72 74.81 45.72 7.06 206.85 42.39 206.85 90.95 91.36 139.52 206.85 174.85 206.85 143.84 133.11 205.34 206.85 247.74 206.85 162.39 104.51 162.39 45.72 129.83 45.72 129.83 99.78 107.08 45.72"/>
    <path class="cls-2" d="M253.08,209.35h-48.92l-51.54-61.81,25.99,61.81h-40.75l-46.9-111.54-46.9,111.54H3.29L73.15,43.22h35.59l18.58,44.17v-44.17h37.57v60.38l88.19,105.75ZM206.51,204.35h35.9l-82.51-98.94v-57.19h-27.57v63.95l-26.9-63.95h-28.95L10.82,204.35h29.91l50.23-119.44,50.23,119.44h29.91l-29.55-70.27,4.22-2.57,60.75,72.84Z"/>
  </g>
  <g>
    <path class="cls-1" d="M203.25,57.52l-1.76,1.8c-78.83,80.86-111.91,81.43-177.82,82.55-7.84.13-14.11,6.62-13.98,14.46.13,7.71,6.51,13.98,14.21,13.98h.26c37.59-.64,66.49-2.02,96.02-13.95,30.61-12.37,61.08-35.51,101.87-77.38l1.73-1.78,13.19,12.65,9.65-58.62-56.55,13.63,13.18,12.65Z"/>
    <path class="cls-2" d="M23.92,172.81c-9.08,0-16.58-7.37-16.73-16.44-.16-9.22,7.22-16.85,16.44-17,65.23-1.11,97.97-1.66,176.07-81.79l-14.66-14.06,64.65-15.59-11.03,67.02-14.82-14.22h0c-41.04,42.12-71.76,65.44-102.72,77.95-29.93,12.1-59.04,13.49-96.91,14.13h-.28ZM195.09,46.23l11.71,11.23-3.52,3.61c-79.55,81.6-112.97,82.17-179.57,83.3-6.46.11-11.63,5.46-11.52,11.92.11,6.35,5.36,11.52,11.71,11.52h.24c37.3-.64,65.97-1.99,95.1-13.77,30.27-12.24,60.48-35.21,101.01-76.8l3.46-3.55,11.55,11.08,8.27-50.21-48.44,11.68Z"/>
  </g>
</svg>